<svg xmlns="http://www.w3.org/2000/svg" width="960" height="500"><g transform="translate(30, 20)"><g><g transform="translate(0, 420)" fill="none" font-size="10" font-family="sans-serif" text-anchor="middle"><path class="domain" stroke="#000" d="M0.5000,5V0.5000H910.5000V5"></path><g class="tick" opacity="1" transform="translate(0,0)"><line stroke="#000" y2="5" x1="0.5" x2="0.5"></line><text fill="#000" y="10" x="0.5" dy="0.71em">0</text></g><g class="tick" opacity="1" transform="translate(92,0)"><line stroke="#000" y2="5" x1="0.5" x2="0.5"></line><text fill="#000" y="10" x="0.5" dy="0.71em">10</text></g><g class="tick" opacity="1" transform="translate(184,0)"><line stroke="#000" y2="5" x1="0.5" x2="0.5"></line><text fill="#000" y="10" x="0.5" dy="0.71em">20</text></g><g class="tick" opacity="1" transform="translate(276,0)"><line stroke="#000" y2="5" x1="0.5" x2="0.5"></line><text fill="#000" y="10" x="0.5" dy="0.71em">30</text></g><g class="tick" opacity="1" transform="translate(368,0)"><line stroke="#000" y2="5" x1="0.5" x2="0.5"></line><text fill="#000" y="10" x="0.5" dy="0.71em">40</text></g><g class="tick" opacity="1" transform="translate(460,0)"><line stroke="#000" y2="5" x1="0.5" x2="0.5"></line><text fill="#000" y="10" x="0.5" dy="0.71em">50</text></g><g class="tick" opacity="1" transform="translate(552,0)"><line stroke="#000" y2="5" x1="0.5" x2="0.5"></line><text fill="#000" y="10" x="0.5" dy="0.71em">60</text></g><g class="tick" opacity="1" transform="translate(643,0)"><line stroke="#000" y2="5" x1="0.5" x2="0.5"></line><text fill="#000" y="10" x="0.5" dy="0.71em">70</text></g><g class="tick" opacity="1" transform="translate(735,0)"><line stroke="#000" y2="5" x1="0.5" x2="0.5"></line><text fill="#000" y="10" x="0.5" dy="0.71em">80</text></g><g class="tick" opacity="1" transform="translate(827,0)"><line stroke="#000" y2="5" x1="0.5" x2="0.5"></line><text fill="#000" y="10" x="0.5" dy="0.71em">90</text></g></g><g fill="none" font-size="10" font-family="sans-serif" text-anchor="end"><path class="domain" stroke="#000" d="M-5,420.5000H0.5000V0.5000H-5"></path><g class="tick" opacity="1" transform="translate(0,420)"><line stroke="#000" x2="-5" y1="0.5" y2="0.5"></line><text fill="#000" x="-10" y="0.5" dy="0.32em">0</text></g><g class="tick" opacity="1" transform="translate(0,378)"><line stroke="#000" x2="-5" y1="0.5" y2="0.5"></line><text fill="#000" x="-10" y="0.5" dy="0.32em">10</text></g><g class="tick" opacity="1" transform="translate(0,335)"><line stroke="#000" x2="-5" y1="0.5" y2="0.5"></line><text fill="#000" x="-10" y="0.5" dy="0.32em">20</text></g><g class="tick" opacity="1" transform="translate(0,293)"><line stroke="#000" x2="-5" y1="0.5" y2="0.5"></line><text fill="#000" x="-10" y="0.5" dy="0.32em">30</text></g><g class="tick" opacity="1" transform="translate(0,250)"><line stroke="#000" x2="-5" y1="0.5" y2="0.5"></line><text fill="#000" x="-10" y="0.5" dy="0.32em">40</text></g><g class="tick" opacity="1" transform="translate(0,208)"><line stroke="#000" x2="-5" y1="0.5" y2="0.5"></line><text fill="#000" x="-10" y="0.5" dy="0.32em">50</text></g><g class="tick" opacity="1" transform="translate(0,165)"><line stroke="#000" x2="-5" y1="0.5" y2="0.5"></line><text fill="#000" x="-10" y="0.5" dy="0.32em">60</text></g><g class="tick" opacity="1" transform="translate(0,123)"><line stroke="#000" x2="-5" y1="0.5" y2="0.5"></line><text fill="#000" x="-10" y="0.5" dy="0.32em">70</text></g><g class="tick" opacity="1" transform="translate(0,81)"><line stroke="#000" x2="-5" y1="0.5" y2="0.5"></line><text fill="#000" x="-10" y="0.5" dy="0.32em">80</text></g><g class="tick" opacity="1" transform="translate(0,38)"><line stroke="#000" x2="-5" y1="0.5" y2="0.5"></line><text fill="#000" x="-10" y="0.5" dy="0.32em">90</text></g></g><path fill="none" stroke="steelblue" stroke-width="1.5" d="M0,420L1.5000,419.3333C3,418.6667,6,417.3333,9,416C12,414.6667,15,413.3333,18.1667,411.8333C21.3333,410.3333,24.6667,408.6667,27.8333,407.1667C31,405.6667,34,404.3333,37,403C40,401.6667,43,400.3333,46,399C49,397.6667,52,396.3333,55,394.8333C58,393.3333,61,391.6667,64.1667,390.1667C67.3333,388.6667,70.6667,387.3333,73.8333,386C77,384.6667,80,383.3333,83,382C86,380.6667,89,379.3333,92,377.8333C95,376.3333,98,374.6667,101,373.1667C104,371.6667,107,370.3333,110,369C113,367.6667,116,366.3333,119.1667,365C122.3333,363.6667,125.6667,362.3333,128.8333,360.8333C132,359.3333,135,357.6667,138,356.1667C141,354.6667,144,353.3333,147,352C150,350.6667,153,349.3333,156,348C159,346.6667,162,345.3333,165.1667,343.8333C168.3333,342.3333,171.6667,340.6667,174.8333,339.1667C178,337.6667,181,336.3333,184,335C187,333.6667,190,332.3333,193,331C196,329.6667,199,328.3333,202,326.8333C205,325.3333,208,323.6667,211.1667,322.1667C214.3333,320.6667,217.6667,319.3333,220.8333,318C224,316.6667,227,315.3333,230,314C233,312.6667,236,311.3333,239,309.8333C242,308.3333,245,306.6667,248,305.1667C251,303.6667,254,302.3333,257.1667,301C260.3333,299.6667,263.6667,298.3333,266.8333,297C270,295.6667,273,294.3333,276,292.8333C279,291.3333,282,289.6667,285,288.1667C288,286.6667,291,285.3333,294,284C297,282.6667,300,281.3333,303.1667,280C306.3333,278.6667,309.6667,277.3333,312.8333,276C316,274.6667,319,273.3333,322,271.8333C325,270.3333,328,268.6667,331,267.1667C334,265.6667,337,264.3333,340,263C343,261.6667,346,260.3333,349,259C352,257.6667,355,256.3333,358.1667,254.8333C361.3333,253.3333,364.6667,251.6667,367.8333,250.1667C371,248.6667,374,247.3333,377,246C380,244.6667,383,243.3333,386,242C389,240.6667,392,239.3333,395,237.8333C398,236.3333,401,234.6667,404.1667,233.1667C407.3333,231.6667,410.6667,230.3333,413.8333,229C417,227.6667,420,226.3333,423,225C426,223.6667,429,222.3333,432,220.8333C435,219.3333,438,217.6667,441,216.1667C444,214.6667,447,213.3333,450.1667,212C453.3333,210.6667,456.6667,209.3333,459.8333,208C463,206.6667,466,205.3333,469,203.8333C472,202.3333,475,200.6667,478,199.1667C481,197.6667,484,196.3333,487,195C490,193.6667,493,192.3333,496.1667,191C499.3333,189.6667,502.6667,188.3333,505.8333,186.8333C509,185.3333,512,183.6667,515,182.1667C518,180.6667,521,179.3333,524,178C527,176.6667,530,175.3333,533,174C536,172.6667,539,171.3333,542.1667,169.8333C545.3333,168.3333,548.6667,166.6667,551.8333,165.1667C555,163.6667,558,162.3333,561,161C564,159.6667,567,158.3333,570,157C573,155.6667,576,154.3333,579,152.8333C582,151.3333,585,149.6667,588,148.1667C591,146.6667,594,145.3333,597.1667,144C600.3333,142.6667,603.6667,141.3333,606.8333,140C610,138.6667,613,137.3333,616,136C619,134.6667,622,133.3333,625,131.8333C628,130.3333,631,128.6667,634,127.1667C637,125.6667,640,124.3333,643.1667,123C646.3333,121.6667,649.6667,120.3333,652.8333,119C656,117.6667,659,116.3333,662,114.8333C665,113.3333,668,111.6667,671,110.1667C674,108.6667,677,107.3333,680,106C683,104.6667,686,103.3333,689.1667,102C692.3333,100.6667,695.6667,99.3333,698.8333,97.8333C702,96.3333,705,94.6667,708,93.1667C711,91.6667,714,90.3333,717,89C720,87.6667,723,86.3333,726,85C729,83.6667,732,82.3333,735.1667,80.8333C738.3333,79.3333,741.6667,77.6667,744.8333,76.1667C748,74.6667,751,73.3333,754,72C757,70.6667,760,69.3333,763,68C766,66.6667,769,65.3333,772,63.8333C775,62.3333,778,60.6667,781.1667,59.1667C784.3333,57.6667,787.6667,56.3333,790.8333,55C794,53.6667,797,52.3333,800,51C803,49.6667,806,48.3333,809,46.8333C812,45.3333,815,43.6667,818,42.1667C821,40.6667,824,39.3333,827,38C830,36.6667,833,35.3333,836.1667,34C839.3333,32.6667,842.6667,31.3333,845.8333,29.8333C849,28.3333,852,26.6667,855,25.1667C858,23.6667,861,22.3333,864,21C867,19.6667,870,18.3333,873,17C876,15.6667,879,14.3333,882.1667,12.8333C885.3333,11.3333,888.6667,9.6667,891.8333,8.1667C895,6.6667,898,5.3333,901,4C904,2.6667,907,1.3333,908.5000,0.6667L910,0"></path></g></g></svg>